<?xml version="1.0" encoding="utf-8"?>
<!-- Generator: Adobe Illustrator 18.1.1, SVG Export Plug-In . SVG Version: 6.00 Build 0)  -->
<!DOCTYPE svg PUBLIC "-//W3C//DTD SVG 1.1//EN" "http://www.w3.org/Graphics/SVG/1.1/DTD/svg11.dtd">
<svg version="1.1" id="Layer_1" xmlns="http://www.w3.org/2000/svg" xmlns:xlink="http://www.w3.org/1999/xlink" x="0px" y="0px"
	 viewBox="0 0 44.5 38.6" style="enable-background:new 0 0 44.5 38.6;" xml:space="preserve">
<path class="ball" d="M22.2,0.1C11.6,0.1,3.1,8.7,3.1,19.3c0,10.6,8.6,19.2,19.2,19.2s19.2-8.6,19.2-19.2S32.8,0.1,22.2,0.1z M22.2,28.4
	c-5,0-9.1-4.1-9.1-9.1c0-5,4.1-9.1,9.1-9.1s9.1,4.1,9.1,9.1C31.4,24.3,27.3,28.4,22.2,28.4z M32,9.8c-1.7-1.9-2.4-4-1.6-4.7
	c0.8-0.7,2.8,0.3,4.5,2.2c1.7,1.9,2.4,4,1.6,4.7C35.7,12.7,33.7,11.7,32,9.8z"/>
<g>
	<path style="fill:#CDCFD1;" d="M38.2,8.6c2.1,3.1,3.3,6.7,3.3,10.7s-1.2,7.6-3.3,10.7c3.7-2.8,6-6.6,6-10.7S41.9,11.4,38.2,8.6z"/>
	<path style="fill:#CDCFD1;" d="M3.1,19.3c0-4,1.2-7.6,3.3-10.7c-3.7,2.8-6,6.6-6,10.7s2.3,7.9,6,10.7C4.3,26.9,3.1,23.2,3.1,19.3z"/>
</g>
<circle class="circle" style="fill:#FFFFFF;" cx="22.2" cy="19.3" r="9.1"/>
<ellipse class="ellipse" transform="matrix(-0.6562 -0.7546 0.7546 -0.6562 48.992 39.4094)" style="fill:#FFFFFF;" cx="33.5" cy="8.5" rx="4.6" ry="1.9"/>
</svg>