<?xml version="1.0" encoding="utf-8"?>
<!-- Generator: Adobe Illustrator 18.1.1, SVG Export Plug-In . SVG Version: 6.00 Build 0)  -->
<!DOCTYPE svg PUBLIC "-//W3C//DTD SVG 1.1//EN" "http://www.w3.org/Graphics/SVG/1.1/DTD/svg11.dtd">
<svg version="1.1" id="Layer_1" xmlns="http://www.w3.org/2000/svg" xmlns:xlink="http://www.w3.org/1999/xlink" x="0px" y="0px"
	 viewBox="487 294 50 50" enable-background="new 487 294 50 50" xml:space="preserve">
<path fill="#FFFFFF" d="M524.7,299c2.1-0.2,2.8,2.8,1.2,5c-5.8,8.3-9.1,18.7-12.1,27c-0.8,2.4-3.1,7.1-5.1,7.8
	c-2.5,0.9-5.4-0.4-6.4-2.1c-1.2-1.9-3.4-6.6-4.5-10.3c-0.3-1.1-0.8-2.5-0.8-3.7c0-2.4,2.9-7.3,5.6-5.8c1.4,0.8,2.9,9,5.5,8.8
	c1-0.1,2.1-4.2,2.8-6.2c1.8-5.3,4.1-9.9,7-14.1C521,301.1,522.4,299.3,524.7,299z"/>
</svg>
