<?xml version="1.0" encoding="utf-8"?>
<!-- Generator: Adobe Illustrator 18.1.1, SVG Export Plug-In . SVG Version: 6.00 Build 0)  -->
<!DOCTYPE svg PUBLIC "-//W3C//DTD SVG 1.1//EN" "http://www.w3.org/Graphics/SVG/1.1/DTD/svg11.dtd">
<svg version="1.1" id="Layer_2" xmlns="http://www.w3.org/2000/svg" xmlns:xlink="http://www.w3.org/1999/xlink" x="0px" y="0px"
	 viewBox="487 294 50 50" enable-background="new 487 294 50 50" xml:space="preserve">
<path fill="#FFFFFF" d="M531.3,300.7c-7.4,1.3-13.8,4.8-19,9c-5.8-5.1-10.8-8-10.8-8c-2.4-1.5-5.4-1.1-7.7,0c-2.3,1.1-2.3,4.5,0,4.9
	c5.1,2,9.6,4.6,13.5,7.5c-6.9,6.9-10.7,13.7-10.7,13.7c-1.5,2.4-1.1,5.4,0,7.7c1.1,2.3,4.5,2.3,4.9,0c2.7-6.9,6.6-12.7,10.7-17.5
	c11.9,10.6,16.9,22.2,16.6,18.3c-1.6-9.3-6.9-17.1-12.3-22.9C525.8,304.3,534.7,300.4,531.3,300.7z"/>
</svg>
